<svg width="464" height="528" viewBox="0 0 464 528" fill="none" xmlns="http://www.w3.org/2000/svg">
<path d="M0.92811 0.958496C122.327 0.958496 244.05 0.958496 365.773 0.958496H457.958C461.853 0.958496 463.8 3.01426 463.8 7.1258C463.8 179.161 463.8 350.872 463.8 522.907C463.8 524.205 463.8 525.504 463.8 527.127C310.592 527.127 157.707 527.127 4.49865 527.127C1.25271 527.127 0.603516 526.477 0.603516 523.232C0.92811 349.249 0.92811 175.266 0.92811 0.958496Z" fill="#B92C2C"/>
<path d="M223.596 161.96C223.596 183.708 223.596 205.456 223.596 227.204C223.596 230.125 222.947 231.099 219.701 231.099C176.53 231.099 133.359 231.099 90.188 231.099C86.942 231.099 85.9683 230.125 85.9683 226.879C85.9683 183.708 85.9683 140.537 85.9683 97.3658C85.9683 94.1199 86.942 93.4707 90.188 93.4707C133.359 93.4707 176.53 93.4707 219.701 93.4707C222.623 93.4707 223.596 94.1199 223.596 97.3658C223.596 119.114 223.596 140.537 223.596 161.96Z" fill="#FEFEFE"/>
<path d="M223.596 317.108C223.596 338.856 223.596 360.28 223.596 382.027C223.596 384.949 222.947 385.923 219.701 385.923C176.53 385.923 133.359 385.923 90.188 385.923C86.942 385.923 85.9683 385.273 85.9683 381.703C85.9683 338.532 85.9683 295.361 85.9683 252.189C85.9683 248.943 86.942 247.97 90.188 247.97C133.359 247.97 176.53 247.97 219.701 247.97C222.947 247.97 223.596 248.944 223.596 251.865C223.596 273.613 223.596 295.361 223.596 317.108Z" fill="#FEFEFE"/>
<path d="M378.444 316.784C378.444 338.207 378.444 359.63 378.444 381.054C378.444 384.3 377.795 385.598 374.224 385.598C331.053 385.598 288.207 385.598 245.036 385.598C241.79 385.598 240.816 384.624 240.816 381.378C240.816 338.207 240.816 295.036 240.816 251.865C240.816 248.294 242.114 247.97 245.036 247.97C288.207 247.97 331.053 247.97 374.224 247.97C377.47 247.97 378.444 248.943 378.12 252.189C378.12 273.937 378.12 295.361 378.12 317.108" fill="#FEFEFE"/>
<path d="M241.133 161.96C241.133 140.537 241.133 119.114 241.133 97.6904C241.133 94.7691 241.458 93.4707 245.028 93.4707C288.2 93.4707 331.371 93.4707 374.542 93.4707C377.463 93.4707 378.437 94.1199 378.437 97.3658C378.437 140.537 378.437 184.033 378.437 227.528C378.437 230.774 377.463 231.423 374.542 231.423C331.371 231.423 288.2 231.423 245.028 231.423C241.458 231.423 241.133 230.125 241.133 227.204C241.133 205.456 241.133 184.033 241.133 162.285" fill="#FEFEFE"/>
<path d="M165.834 449.556C162.913 449.556 160.64 449.556 158.044 449.556C156.745 449.556 156.096 449.231 156.096 447.608C156.096 445.985 157.07 446.31 158.044 446.31C160.64 446.31 162.913 446.31 165.509 446.31C170.054 446.31 170.378 446.959 169.08 451.179C167.457 457.022 162.263 460.592 155.447 460.268C148.63 459.943 143.112 455.074 142.138 448.582C141.165 441.766 144.735 435.274 150.903 433.002C156.421 431.054 161.29 432.028 165.509 435.923C166.159 436.572 168.431 437.546 166.808 439.169C165.509 440.792 164.536 439.818 163.237 438.52C159.667 434.949 154.148 434.625 149.929 437.546C146.034 440.467 144.411 445.661 146.358 450.205C147.981 454.749 152.526 457.022 157.719 456.372C161.614 456.048 164.86 454.1 165.509 449.556" fill="#FDFCFC"/>
<path d="M259.645 446.629C259.645 443.059 259.645 439.813 259.645 436.242C259.645 433.646 260.619 432.996 262.891 432.996C265.488 432.996 267.76 432.996 270.357 432.996C277.822 432.996 283.016 438.839 283.016 446.629C283.016 454.095 277.822 459.613 270.681 459.938C263.54 460.154 259.97 456.692 259.97 449.551V446.629" fill="#FDFBFB"/>
<path d="M378.092 459.295C375.496 460.269 374.197 459.619 373.223 457.672C372.25 455.724 370.951 453.777 369.977 451.829C368.679 448.583 366.082 449.232 363.486 449.557C360.564 449.882 362.187 452.478 361.863 453.777C361.863 455.075 361.863 456.373 361.863 457.996C361.863 459.295 361.213 459.619 359.915 459.619C358.617 459.619 358.292 458.97 358.292 457.996C358.292 450.206 358.292 442.416 358.292 434.626C358.292 432.678 359.59 432.678 360.889 432.678C363.81 432.678 366.731 432.678 369.653 432.678C373.548 432.678 375.82 434.95 377.118 438.196C378.092 441.442 377.768 444.688 374.846 446.636C371.925 448.583 372.899 450.206 374.197 452.154C375.496 454.101 376.794 456.373 378.092 458.646" fill="#FDFCFC"/>
<path d="M225.237 459.289C222.64 460.262 221.017 459.613 220.693 457.341C220.043 454.095 218.096 453.446 215.499 453.77C213.876 453.77 212.578 453.77 210.955 453.77C208.033 453.446 206.41 454.42 206.086 457.341C205.761 459.613 204.138 460.587 201.542 459.289C204.463 451.174 207.709 443.059 210.63 434.944C211.279 433.646 211.929 432.996 213.227 432.996C214.85 432.996 215.824 433.646 216.148 435.268C219.07 443.383 221.991 451.174 225.237 459.613" fill="#FDFCFC"/>
<path d="M109.656 457.997C109.656 457.997 109.656 459.62 108.682 459.945C107.708 459.945 106.41 459.945 105.761 458.971C104.787 457.348 105.761 454.427 103.164 454.427C99.9179 454.102 96.3474 454.427 92.7769 454.427C90.8293 454.427 91.1539 456.699 90.5047 457.997C89.8555 459.62 88.8817 460.919 87.2587 460.269C85.3112 459.62 86.9341 457.997 87.2587 457.348C89.8555 450.207 92.4523 443.391 95.049 436.249C95.6982 434.951 96.0228 433.653 97.9704 433.328C99.9179 433.328 100.567 434.302 101.216 435.925C103.813 443.066 106.41 450.207 109.007 457.348C109.007 457.997 109.331 458.322 109.331 458.322" fill="#FDFCFC"/>
<path d="M321.618 446.629V457.341C321.618 457.341 321.618 459.938 319.995 459.938C318.047 459.938 318.372 458.639 318.372 457.341V435.268C318.372 435.268 318.372 432.996 319.995 432.996C321.942 432.996 321.942 433.97 321.942 435.268C321.942 439.164 321.942 442.734 321.942 446.629" fill="#FEFEFE"/>
<path d="M123.626 161.953C123.626 146.373 123.626 131.117 123.626 115.536C123.626 112.615 123.951 111.317 127.521 111.317C145.698 111.317 163.876 111.317 182.053 111.317C184.974 111.317 185.948 111.966 185.624 114.887C185.624 119.107 185.624 123.327 185.624 127.222C185.624 129.819 184.65 130.468 182.378 130.468C170.692 130.468 159.007 130.468 147.646 130.468C144.4 130.468 143.751 131.442 143.751 134.363C143.751 139.232 143.751 144.101 143.751 148.97C143.751 151.566 144.4 152.216 146.997 152.216C157.384 152.216 168.095 152.216 178.482 152.216C181.404 152.216 182.378 152.865 182.053 155.786C182.053 159.681 182.053 163.576 182.053 167.472C182.053 170.068 181.404 171.042 178.482 171.042C168.095 171.042 157.708 171.042 147.321 171.042C144.075 171.042 143.102 171.691 143.426 174.937C143.426 180.131 143.426 185.324 143.426 190.193C143.426 193.115 144.075 194.088 146.997 193.764C158.682 193.764 170.692 193.764 182.378 193.764C185.624 193.764 186.597 194.413 186.273 197.659C186.273 201.879 186.273 206.098 186.273 210.643C186.273 212.59 185.624 213.239 183.676 213.239C164.525 213.239 145.374 213.239 126.547 213.239C123.626 213.239 123.626 211.616 123.626 209.669C123.626 193.764 123.626 178.183 123.626 162.278" fill="#B92C2C"/>
<path d="M156.395 369.701C139.84 369.377 126.207 363.858 118.093 348.278C116.47 345.357 117.119 344.058 120.04 342.76C123.935 340.812 127.506 338.54 131.076 336.268C133.024 335.294 133.673 334.97 134.972 337.242C140.814 347.953 152.5 352.822 164.185 349.576C169.703 347.953 172.625 345.032 172.949 340.488C173.274 335.619 171.326 332.697 165.808 330.101C157.693 326.205 148.605 324.583 140.49 321.337C123.286 314.195 116.145 298.94 122.637 283.034C127.506 271.349 137.244 266.155 149.254 264.532C165.159 262.26 180.739 270.375 188.53 284.008C189.828 285.956 190.153 287.254 187.556 288.877C183.661 290.825 179.766 293.097 176.195 295.694C173.923 297.317 173.274 296.667 171.975 294.395C167.106 286.28 159.641 283.034 150.552 284.333C145.359 284.982 141.788 288.228 140.814 292.772C140.165 296.992 142.113 300.887 146.982 303.484C155.096 308.028 164.185 309.327 172.625 312.897C181.389 316.468 188.854 321.337 192.1 330.75C197.618 348.278 187.231 364.832 168.405 369.052C164.51 370.026 160.615 370.026 156.395 370.35" fill="#B92C2C"/>
<path d="M261.579 367.432C269.045 345.684 276.51 324.91 283.652 303.812C287.547 292.451 291.766 281.09 295.662 269.405C296.635 266.808 297.609 265.51 300.53 265.834C306.698 265.834 312.865 265.834 319.357 265.834C320.98 265.834 321.954 265.834 322.603 267.782C333.964 300.566 345.649 333.674 357.659 367.108C351.167 367.108 345 367.108 338.833 367.108C337.21 367.108 336.885 365.809 336.561 364.511C334.938 359.967 333.315 355.747 332.016 351.203C331.367 349.255 330.393 348.606 328.446 348.606C316.111 348.606 304.101 348.606 292.091 348.606C290.143 348.606 289.17 349.255 288.52 351.203C287.222 355.747 285.599 359.967 284.301 364.511C283.976 365.809 283.327 366.783 281.704 366.783C275.212 366.783 269.045 366.783 262.228 366.783" fill="#B92C2C"/>
<path d="M290.128 152.219C290.128 170.721 290.128 189.222 290.128 207.724C290.128 211.944 289.154 213.567 284.934 212.918C281.039 212.593 276.82 212.918 272.924 212.918C270.652 212.918 270.328 212.269 270.328 209.997C270.328 177.862 270.328 146.051 270.328 113.917C270.328 111.969 270.652 110.671 272.924 110.995C272.924 110.995 272.924 110.995 273.249 110.995C282.013 109.372 287.531 112.618 292.4 120.408C303.112 136.963 314.797 152.543 326.158 168.773C326.807 169.747 327.781 170.721 328.43 171.694C329.728 170.396 329.079 169.098 329.079 168.124C329.079 150.271 329.079 132.743 329.079 114.89C329.079 111.969 329.728 110.671 332.974 110.995C337.194 110.995 341.414 110.995 345.958 110.995C349.204 110.995 349.204 112.618 349.204 114.89C349.204 142.156 349.204 169.098 349.204 196.364C349.204 200.908 349.204 205.452 349.204 209.997C349.204 211.944 348.555 212.918 346.607 212.593C346.283 212.593 345.634 212.593 345.309 212.593C336.87 214.216 331.676 210.646 327.132 203.18C315.771 185.652 303.112 168.773 291.102 151.569H290.453L290.128 152.219Z" fill="#B92C2C"/>
<path d="M263.203 445.988C263.203 445.988 263.203 444.366 263.203 443.392C263.528 441.12 261.905 437.549 264.177 436.575C267.098 435.601 270.669 435.601 273.915 436.9C277.81 438.523 280.082 443.716 279.433 448.261C278.459 452.805 275.213 455.726 270.669 456.051C265.908 456.267 263.528 453.995 263.528 449.234V445.339L263.203 445.988Z" fill="#B92C2C"/>
<path d="M362.189 441.107C361.215 437.536 362.189 435.913 366.409 436.238C371.927 436.562 374.199 437.861 374.199 441.431C374.199 444.677 371.602 445.975 366.733 446.3C362.189 446.625 361.54 444.352 362.513 441.107" fill="#BA3030"/>
<path d="M218.412 450.519H208.674C210.297 446.3 211.595 442.08 213.543 437.211C215.49 442.08 216.789 445.975 218.412 450.519Z" fill="#BB3030"/>
<path d="M103.179 450.529H93.7661C95.0645 446.309 96.3629 442.089 98.635 437.545C100.258 442.089 101.881 445.984 103.504 450.529" fill="#BB3232"/>
<path d="M309.606 289.195C314.475 302.503 318.695 315.163 323.239 327.497C324.213 329.769 324.213 330.743 320.967 330.743C313.501 330.743 306.036 330.743 298.57 330.743C296.947 330.743 295.324 331.068 296.298 328.471C300.518 315.812 304.737 302.828 309.282 289.195" fill="#FEFEFE"/>
</svg>
